<mxfile host="www.draw.io" modified="2019-11-13T05:50:27.723Z" agent="Mozilla/5.0 (Macintosh; Intel Mac OS X 10_14_2) AppleWebKit/537.36 (KHTML, like Gecko) Chrome/78.0.3904.70 Safari/537.36" etag="k1hyjxS7ECRMQBHja07D" version="12.2.3" type="github" pages="1">
  <diagram id="nkZMCdJeHVHANkEMKzTO" name="第 1 页">
    <mxGraphModel dx="1426" dy="691" grid="1" gridSize="10" guides="1" tooltips="1" connect="1" arrows="1" fold="1" page="1" pageScale="1" pageWidth="827" pageHeight="1169" math="0" shadow="0">
      <root>
        <mxCell id="0"/>
        <mxCell id="1" parent="0"/>
        <mxCell id="k5rMsl9TQhRO8qZwbq6s-1" value="WEB" style="rounded=0;whiteSpace=wrap;html=1;fillColor=#f5f5f5;strokeColor=#666666;fontColor=#333333;align=left;" parent="1" vertex="1">
          <mxGeometry x="90" y="80" width="650" height="60" as="geometry"/>
        </mxCell>
        <mxCell id="k5rMsl9TQhRO8qZwbq6s-2" value="预案平台" style="rounded=0;whiteSpace=wrap;html=1;fillColor=#ffe6cc;strokeColor=#d79b00;align=left;" parent="1" vertex="1">
          <mxGeometry x="90" y="200" width="650" height="170" as="geometry"/>
        </mxCell>
        <mxCell id="oypExeaAUtttKrn89Kuu-1" style="edgeStyle=orthogonalEdgeStyle;rounded=0;orthogonalLoop=1;jettySize=auto;html=1;exitX=0.5;exitY=1;exitDx=0;exitDy=0;entryX=0.5;entryY=0;entryDx=0;entryDy=0;" edge="1" parent="1" source="k5rMsl9TQhRO8qZwbq6s-4" target="k5rMsl9TQhRO8qZwbq6s-2">
          <mxGeometry relative="1" as="geometry"/>
        </mxCell>
        <mxCell id="k5rMsl9TQhRO8qZwbq6s-4" value="SSO登录" style="rounded=1;whiteSpace=wrap;html=1;align=center;" parent="1" vertex="1">
          <mxGeometry x="355" y="80" width="120" height="60" as="geometry"/>
        </mxCell>
        <mxCell id="k5rMsl9TQhRO8qZwbq6s-10" value="预案管理" style="rounded=1;whiteSpace=wrap;html=1;align=center;" parent="1" vertex="1">
          <mxGeometry x="150" y="220" width="120" height="60" as="geometry"/>
        </mxCell>
        <mxCell id="k5rMsl9TQhRO8qZwbq6s-11" value="预案执行" style="rounded=1;whiteSpace=wrap;html=1;align=center;" parent="1" vertex="1">
          <mxGeometry x="150" y="300" width="120" height="60" as="geometry"/>
        </mxCell>
        <mxCell id="k5rMsl9TQhRO8qZwbq6s-24" style="edgeStyle=orthogonalEdgeStyle;rounded=0;orthogonalLoop=1;jettySize=auto;html=1;entryX=0.431;entryY=0;entryDx=0;entryDy=0;entryPerimeter=0;" parent="1" source="k5rMsl9TQhRO8qZwbq6s-12" target="k5rMsl9TQhRO8qZwbq6s-15" edge="1">
          <mxGeometry relative="1" as="geometry">
            <mxPoint x="370" y="400" as="targetPoint"/>
          </mxGeometry>
        </mxCell>
        <mxCell id="k5rMsl9TQhRO8qZwbq6s-12" value="预案工具" style="rounded=1;whiteSpace=wrap;html=1;align=center;fillColor=#6d8764;strokeColor=#3A5431;fontColor=#ffffff;" parent="1" vertex="1">
          <mxGeometry x="310" y="300" width="120" height="60" as="geometry"/>
        </mxCell>
        <mxCell id="k5rMsl9TQhRO8qZwbq6s-13" value="系统管理" style="rounded=1;whiteSpace=wrap;html=1;align=center;" parent="1" vertex="1">
          <mxGeometry x="310" y="220" width="120" height="60" as="geometry"/>
        </mxCell>
        <mxCell id="k5rMsl9TQhRO8qZwbq6s-14" value="案例管理" style="rounded=1;whiteSpace=wrap;html=1;align=center;" parent="1" vertex="1">
          <mxGeometry x="470" y="220" width="120" height="60" as="geometry"/>
        </mxCell>
        <mxCell id="k5rMsl9TQhRO8qZwbq6s-15" value="执行工具" style="rounded=0;whiteSpace=wrap;html=1;align=left;fillColor=#d5e8d4;strokeColor=#82b366;" parent="1" vertex="1">
          <mxGeometry x="90" y="430" width="650" height="290" as="geometry"/>
        </mxCell>
        <mxCell id="k5rMsl9TQhRO8qZwbq6s-17" value="SOA工具" style="shape=cube;whiteSpace=wrap;html=1;boundedLbl=1;backgroundOutline=1;darkOpacity=0.05;darkOpacity2=0.1;align=left;" parent="1" vertex="1">
          <mxGeometry x="150" y="450" width="120" height="80" as="geometry"/>
        </mxCell>
        <mxCell id="k5rMsl9TQhRO8qZwbq6s-18" value="HMS工具" style="shape=cube;whiteSpace=wrap;html=1;boundedLbl=1;backgroundOutline=1;darkOpacity=0.05;darkOpacity2=0.1;align=left;" parent="1" vertex="1">
          <mxGeometry x="310" y="450" width="120" height="80" as="geometry"/>
        </mxCell>
        <mxCell id="k5rMsl9TQhRO8qZwbq6s-19" value="阿里云API" style="shape=cube;whiteSpace=wrap;html=1;boundedLbl=1;backgroundOutline=1;darkOpacity=0.05;darkOpacity2=0.1;align=left;" parent="1" vertex="1">
          <mxGeometry x="150" y="560" width="120" height="80" as="geometry"/>
        </mxCell>
        <mxCell id="k5rMsl9TQhRO8qZwbq6s-20" value="Shell" style="shape=cube;whiteSpace=wrap;html=1;boundedLbl=1;backgroundOutline=1;darkOpacity=0.05;darkOpacity2=0.1;align=left;" parent="1" vertex="1">
          <mxGeometry x="470" y="450" width="120" height="80" as="geometry"/>
        </mxCell>
        <mxCell id="k5rMsl9TQhRO8qZwbq6s-22" style="edgeStyle=orthogonalEdgeStyle;rounded=0;orthogonalLoop=1;jettySize=auto;html=1;entryX=0.672;entryY=-0.007;entryDx=0;entryDy=0;entryPerimeter=0;" parent="1" source="k5rMsl9TQhRO8qZwbq6s-21" target="k5rMsl9TQhRO8qZwbq6s-15" edge="1">
          <mxGeometry relative="1" as="geometry">
            <mxPoint x="440" y="400" as="targetPoint"/>
          </mxGeometry>
        </mxCell>
        <mxCell id="k5rMsl9TQhRO8qZwbq6s-21" value="PlanMan-SDK" style="rounded=1;whiteSpace=wrap;html=1;align=center;fillColor=#f8cecc;strokeColor=#b85450;" parent="1" vertex="1">
          <mxGeometry x="467" y="300" width="120" height="60" as="geometry"/>
        </mxCell>
        <mxCell id="k5rMsl9TQhRO8qZwbq6s-26" value="Apollo" style="shape=cube;whiteSpace=wrap;html=1;boundedLbl=1;backgroundOutline=1;darkOpacity=0.05;darkOpacity2=0.1;align=left;" parent="1" vertex="1">
          <mxGeometry x="310" y="560" width="120" height="80" as="geometry"/>
        </mxCell>
      </root>
    </mxGraphModel>
  </diagram>
</mxfile>
